<svg xmlns="http://www.w3.org/2000/svg" xmlns:xlink="http://www.w3.org/1999/xlink" width="500" zoomAndPan="magnify" viewBox="0 0 375 374.999991" height="500" preserveAspectRatio="xMidYMid meet" version="1.0"><defs><g/><clipPath id="id1"><path d="M 42 132 L 154.886719 132 L 154.886719 221.851562 L 42 221.851562 Z M 42 132 " clip-rule="nonzero"/></clipPath><clipPath id="id2"><path d="M 110 113.101562 L 132 113.101562 L 132 190 L 110 190 Z M 110 113.101562 " clip-rule="nonzero"/></clipPath><clipPath id="id3"><path d="M 52 199 L 91 199 L 91 221.851562 L 52 221.851562 Z M 52 199 " clip-rule="nonzero"/></clipPath><clipPath id="id4"><path d="M 19 241.382812 L 62.265625 241.382812 L 62.265625 251 L 19 251 Z M 19 241.382812 " clip-rule="nonzero"/></clipPath><clipPath id="id5"><path d="M 26 241.382812 L 59 241.382812 L 59 267 L 26 267 Z M 26 241.382812 " clip-rule="nonzero"/></clipPath><clipPath id="id6"><path d="M 102 216 L 157.335938 216 L 157.335938 253 L 102 253 Z M 102 216 " clip-rule="nonzero"/></clipPath><clipPath id="id7"><path d="M 48.582031 216 L 103 216 L 103 253 L 48.582031 253 Z M 48.582031 216 " clip-rule="nonzero"/></clipPath><clipPath id="id8"><path d="M 102 242 L 157 242 L 157 258.859375 L 102 258.859375 Z M 102 242 " clip-rule="nonzero"/></clipPath><clipPath id="id9"><path d="M 49 242 L 103 242 L 103 258.859375 L 49 258.859375 Z M 49 242 " clip-rule="nonzero"/></clipPath><clipPath id="id10"><path d="M 104 249 L 157 249 L 157 258.859375 L 104 258.859375 Z M 104 249 " clip-rule="nonzero"/></clipPath><clipPath id="id11"><path d="M 49 249 L 101 249 L 101 258.859375 L 49 258.859375 Z M 49 249 " clip-rule="nonzero"/></clipPath><clipPath id="id12"><path d="M 90 166.164062 L 117 166.164062 L 117 215 L 90 215 Z M 90 166.164062 " clip-rule="nonzero"/></clipPath></defs><g clip-path="url(#id1)"><path fill="#004aad" d="M 101.8125 234.125 C 101.8125 234.125 114.316406 230.527344 126.710938 217.867188 C 140.09375 204.195312 135.117188 180.425781 154.878906 184.464844 C 154.878906 184.464844 153.945312 171.105469 141.808594 170.484375 C 129.667969 169.863281 124.429688 191.25 110.214844 190.835938 C 95.386719 190.402344 77.691406 178.253906 62.441406 163.183594 C 47.1875 148.113281 42.988281 132.890625 42.988281 132.890625 C 42.988281 132.890625 39.5625 147.648438 61.503906 168.621094 C 83.449219 189.59375 109.90625 201.710938 122.042969 188.816406 C 131.464844 178.808594 141.03125 167.84375 152.390625 181.671875 C 152.390625 181.671875 141.03125 179.339844 136.515625 189.902344 C 132.003906 200.46875 130.601562 210.253906 115.972656 221.75 C 106.484375 229.210938 103.679688 229.878906 101.8125 234.125 Z M 101.8125 234.125 " fill-opacity="1" fill-rule="evenodd"/></g><g clip-path="url(#id2)"><path fill="#004aad" d="M 131.070312 113.160156 C 131.070312 113.160156 129.359375 118.910156 127.957031 136.929688 C 126.554688 154.949219 130.445312 159.765625 127.957031 166.757812 C 125.46875 173.746094 124.769531 185.019531 115.351562 188.503906 C 105.703125 192.078125 113.640625 188.195312 117.839844 183.84375 C 122.042969 179.496094 125.3125 163.492188 124.84375 157.125 C 124.378906 150.753906 119.863281 122.480469 131.070312 113.160156 Z M 131.070312 113.160156 " fill-opacity="1" fill-rule="evenodd"/></g><path fill="#004aad" d="M 118.308594 147.335938 C 118.308594 147.335938 115.8125 134.917969 119.085938 124.964844 C 122.511719 114.558594 117.542969 115.363281 115.351562 124.035156 C 111.148438 140.65625 118.308594 147.335938 118.308594 147.335938 Z M 118.308594 147.335938 " fill-opacity="1" fill-rule="evenodd"/><path fill="#004aad" d="M 111.460938 150.753906 C 111.460938 150.753906 108.039062 143.765625 107.257812 132.269531 C 106.480469 120.773438 102.613281 127.863281 103.679688 135.21875 C 105.703125 149.203125 111.460938 150.753906 111.460938 150.753906 Z M 111.460938 150.753906 " fill-opacity="1" fill-rule="evenodd"/><path fill="#004aad" d="M 105.652344 156.660156 C 105.652344 156.660156 100.773438 151.582031 97.039062 144.230469 C 93.304688 136.878906 91.023438 143.195312 96.625 149.71875 C 102.226562 156.242188 105.652344 156.660156 105.652344 156.660156 Z M 105.652344 156.660156 " fill-opacity="1" fill-rule="evenodd"/><path fill="#004aad" d="M 101.398438 163.90625 C 101.398438 163.90625 99.632812 162.5625 95.585938 159.558594 C 91.542969 156.554688 89.882812 163.699219 101.398438 163.90625 Z M 101.398438 163.90625 " fill-opacity="1" fill-rule="evenodd"/><path fill="#004aad" d="M 54.191406 167.429688 C 54.191406 167.429688 46.617188 160.800781 40.082031 150.339844 C 33.84375 140.359375 32.714844 136.980469 30.226562 139.878906 C 27.734375 142.78125 39.460938 160.179688 54.191406 167.429688 Z M 54.191406 167.429688 " fill-opacity="1" fill-rule="evenodd"/><path fill="#004aad" d="M 54.917969 175.597656 C 54.917969 175.597656 45.097656 173.660156 35.921875 168.484375 C 26.746094 163.3125 24.261719 168.160156 36.785156 172.796875 C 49.304688 177.429688 54.917969 175.597656 54.917969 175.597656 Z M 54.917969 175.597656 " fill-opacity="1" fill-rule="evenodd"/><path fill="#004aad" d="M 60.417969 183.910156 C 60.417969 183.910156 51.796875 184.664062 44.039062 183.371094 C 36.28125 182.082031 34.34375 180.46875 35.527344 183.371094 C 36.714844 186.277344 52.011719 187.996094 60.417969 183.910156 Z M 60.417969 183.910156 " fill-opacity="1" fill-rule="evenodd"/><path fill="#004aad" d="M 63.632812 190.285156 C 63.632812 190.285156 57.78125 191.910156 50.628906 193.640625 C 43.472656 195.371094 46.941406 197.644531 53.011719 196.128906 C 59.082031 194.613281 63.632812 190.285156 63.632812 190.285156 Z M 63.632812 190.285156 " fill-opacity="1" fill-rule="evenodd"/><path fill="#004aad" d="M 66.847656 196.113281 C 66.847656 196.113281 61.988281 197.191406 57.5625 199.566406 C 53.132812 201.9375 61.339844 203.550781 66.847656 196.113281 Z M 66.847656 196.113281 " fill-opacity="1" fill-rule="evenodd"/><g clip-path="url(#id3)"><path fill="#004aad" d="M 64.878906 202.851562 C 68.820312 199.949219 80.894531 195.792969 88.324219 207.40625 C 93.097656 214.863281 88.324219 224.183594 75.667969 232.882812 C 65.753906 239.699219 59.898438 249.246094 54.085938 252.976562 C 49.667969 255.8125 51.421875 241.605469 71.515625 230.605469 C 90.816406 220.042969 88.75 210.878906 83.136719 206.371094 C 74.628906 199.535156 60.128906 206.34375 64.878906 202.851562 Z M 64.878906 202.851562 " fill-opacity="1" fill-rule="evenodd"/></g><path fill="#004aad" d="M 144.453125 178.40625 C 144.453125 179.4375 143.617188 180.273438 142.585938 180.273438 C 141.554688 180.273438 140.71875 179.4375 140.71875 178.40625 C 140.71875 177.378906 141.554688 176.542969 142.585938 176.542969 C 143.617188 176.542969 144.453125 177.378906 144.453125 178.40625 Z M 144.453125 178.40625 " fill-opacity="1" fill-rule="nonzero"/><g clip-path="url(#id4)"><path fill="#004aad" d="M 68.011719 250.796875 C 68.011719 250.796875 78.351562 247.816406 88.601562 237.335938 C 99.664062 226.019531 95.546875 206.34375 111.890625 209.6875 C 111.890625 209.6875 111.117188 198.628906 101.082031 198.113281 C 91.042969 197.597656 86.710938 215.304688 74.960938 214.960938 C 62.699219 214.601562 48.066406 204.542969 35.457031 192.070312 C 22.847656 179.597656 19.375 166.992188 19.375 166.992188 C 19.375 166.992188 16.542969 179.210938 34.6875 196.570312 C 52.828125 213.929688 74.703125 223.960938 84.738281 213.289062 C 92.53125 205.003906 100.4375 195.925781 109.832031 207.371094 C 109.832031 207.371094 100.4375 205.445312 96.707031 214.1875 C 92.976562 222.933594 91.816406 231.035156 79.722656 240.550781 C 71.875 246.726562 69.554688 247.28125 68.011719 250.796875 Z M 68.011719 250.796875 " fill-opacity="1" fill-rule="evenodd"/></g><g clip-path="url(#id5)"><path fill="#004aad" d="M 37.472656 224.90625 C 40.734375 222.503906 50.714844 219.0625 56.859375 228.675781 C 60.804688 234.847656 56.859375 242.566406 46.394531 249.765625 C 38.199219 255.40625 33.355469 263.3125 28.550781 266.398438 C 24.898438 268.746094 26.347656 256.988281 42.964844 247.878906 C 58.917969 239.136719 57.210938 231.550781 52.570312 227.820312 C 45.539062 222.160156 33.546875 227.796875 37.472656 224.90625 Z M 37.472656 224.90625 " fill-opacity="1" fill-rule="evenodd"/></g><path fill="#004aad" d="M 43.136719 256.625 C 43.136719 256.625 38.332031 262.96875 35.242188 269.484375 C 32.15625 276 26.664062 266.226562 43.136719 256.625 Z M 43.136719 256.625 " fill-opacity="1" fill-rule="evenodd"/><path fill="#004aad" d="M 41.933594 264.339844 C 41.933594 264.339844 40.046875 269.3125 39.875 273.085938 C 39.703125 276.859375 31.8125 273.769531 41.933594 264.339844 Z M 41.933594 264.339844 " fill-opacity="1" fill-rule="evenodd"/><g clip-path="url(#id6)"><path fill="#004aad" d="M 142.847656 216.820312 C 142.847656 216.820312 142.589844 217.449219 141.585938 217.941406 L 152.335938 241.660156 C 152.335938 241.660156 149.6875 244.59375 143.324219 242.941406 C 136.957031 241.292969 124.449219 235.285156 117.285156 236.453125 C 105.5625 238.367188 102.976562 248.722656 102.976562 248.722656 L 102.976562 252.9375 C 102.976562 252.9375 105.824219 242.585938 118.742188 240.671875 C 126.632812 239.503906 140.414062 245.507812 147.429688 247.160156 C 154.441406 248.8125 157.359375 245.878906 157.359375 245.878906 L 142.847656 216.820312 " fill-opacity="1" fill-rule="nonzero"/></g><g clip-path="url(#id7)"><path fill="#004aad" d="M 88.667969 236.453125 C 81.507812 235.285156 69 241.292969 62.632812 242.941406 C 56.265625 244.59375 53.621094 241.660156 53.621094 241.660156 L 64.367188 217.941406 C 63.367188 217.449219 63.105469 216.820312 63.105469 216.820312 L 48.597656 245.878906 C 48.597656 245.878906 51.511719 248.8125 58.527344 247.160156 C 65.539062 245.507812 79.320312 239.503906 87.214844 240.671875 C 100.128906 242.585938 102.976562 252.9375 102.976562 252.9375 L 102.976562 248.722656 C 102.976562 248.722656 100.394531 238.367188 88.667969 236.453125 " fill-opacity="1" fill-rule="nonzero"/></g><g clip-path="url(#id8)"><path fill="#004aad" d="M 156.171875 249.683594 C 156.171875 249.683594 150.710938 251.527344 143.324219 248.742188 C 137.171875 246.421875 124.449219 241.085938 117.285156 242.253906 C 105.5625 244.167969 102.976562 254.519531 102.976562 254.519531 L 102.976562 258.738281 C 102.976562 258.738281 105.824219 248.382812 118.742188 246.46875 C 126.632812 245.300781 140.414062 251.308594 147.429688 252.957031 C 154.441406 254.609375 156.171875 251.675781 156.171875 251.675781 L 156.171875 249.683594 " fill-opacity="1" fill-rule="nonzero"/></g><g clip-path="url(#id9)"><path fill="#004aad" d="M 88.667969 242.253906 C 81.507812 241.085938 68.957031 246.929688 62.632812 248.742188 C 53.820312 251.265625 49.292969 249.15625 49.292969 249.15625 L 49.292969 251.675781 C 49.292969 251.675781 51.511719 254.609375 58.527344 252.957031 C 65.539062 251.308594 79.320312 245.300781 87.214844 246.46875 C 100.128906 248.382812 102.976562 258.738281 102.976562 258.738281 L 102.976562 254.519531 C 102.976562 254.519531 100.394531 244.167969 88.667969 242.253906 " fill-opacity="1" fill-rule="nonzero"/></g><path fill="#004aad" d="M 136.085938 212.160156 C 136.085938 212.160156 135.480469 213.824219 132.25 213.699219 C 127.589844 213.515625 118.234375 205.867188 111.183594 207.671875 C 104.480469 209.390625 102.976562 213.515625 102.976562 213.515625 L 102.976562 245.203125 C 102.976562 245.203125 105.339844 235.730469 116.066406 233.980469 C 122.621094 232.910156 134.0625 238.40625 139.886719 239.914062 C 145.710938 241.425781 148.132812 238.742188 148.132812 238.742188 L 136.085938 212.160156 " fill-opacity="1" fill-rule="nonzero"/><path fill="#004aad" d="M 69.871094 212.160156 C 69.871094 212.160156 70.476562 213.824219 73.707031 213.699219 C 78.363281 213.515625 87.722656 205.867188 94.769531 207.671875 C 101.472656 209.390625 102.976562 213.515625 102.976562 213.515625 L 102.976562 245.203125 C 102.976562 245.203125 100.613281 235.730469 89.890625 233.980469 C 83.335938 232.910156 71.894531 238.40625 66.070312 239.914062 C 60.246094 241.425781 57.824219 238.742188 57.824219 238.742188 L 69.871094 212.160156 " fill-opacity="1" fill-rule="nonzero"/><g clip-path="url(#id10)"><path fill="#004aad" d="M 156.171875 258.183594 C 156.171875 258.183594 145.539062 258.183594 137.855469 255.121094 C 129.953125 251.964844 126.039062 249.285156 121.894531 249.285156 C 112.179688 249.285156 104.976562 258.183594 104.976562 258.183594 L 156.171875 258.183594 " fill-opacity="1" fill-rule="nonzero"/></g><path fill="#004aad" d="M 138.054688 252.9375 C 150.894531 258.738281 156.171875 256.601562 156.171875 256.601562 L 156.171875 254.769531 C 156.171875 254.769531 152.96875 258.058594 138.054688 252.9375 " fill-opacity="1" fill-rule="nonzero"/><g clip-path="url(#id11)"><path fill="#004aad" d="M 49.292969 258.183594 C 49.292969 258.183594 59.921875 258.183594 67.605469 255.121094 C 75.511719 251.964844 79.421875 249.285156 83.566406 249.285156 C 93.28125 249.285156 100.488281 258.183594 100.488281 258.183594 L 49.292969 258.183594 " fill-opacity="1" fill-rule="nonzero"/></g><path fill="#004aad" d="M 67.40625 252.9375 C 54.570312 258.738281 49.292969 256.601562 49.292969 256.601562 L 49.292969 254.769531 C 49.292969 254.769531 52.496094 258.058594 67.40625 252.9375 " fill-opacity="1" fill-rule="nonzero"/><g clip-path="url(#id12)"><path fill="#004aad" d="M 116.816406 177.308594 L 107.832031 177.308594 L 107.832031 166.289062 L 99.015625 166.289062 L 99.015625 177.308594 L 90.027344 177.308594 L 90.027344 186.097656 L 99.015625 186.097656 L 99.015625 214.875 L 107.832031 214.875 L 107.832031 186.097656 L 116.816406 186.097656 L 116.816406 177.308594 " fill-opacity="1" fill-rule="nonzero"/></g><g fill="#004aad" fill-opacity="1"><g transform="translate(169.025009, 171.530484)"><g><path d="M 18.320312 -14.074219 L 18.320312 -12.691406 L 19.226562 -12.59375 C 21.707031 -12.355469 22.183594 -11.640625 22.183594 -8.109375 C 22.183594 -3.242188 21.183594 -1.144531 17.507812 -1.144531 C 11.066406 -1.144531 7.632812 -7.585938 7.632812 -16.457031 C 7.632812 -25.238281 11.019531 -28.671875 15.601562 -28.671875 C 19.703125 -28.671875 22.515625 -25.855469 24.425781 -21.371094 L 27 -21.371094 C 25.808594 -24.234375 25.332031 -26.859375 24.902344 -29.578125 C 23.996094 -29.386719 23.566406 -29.339844 22.945312 -29.339844 C 20.132812 -29.339844 19.082031 -30.390625 15.742188 -30.390625 C 7.394531 -30.390625 1.667969 -23.949219 1.667969 -15.027344 C 1.667969 -5.820312 7.347656 0.667969 16.21875 0.667969 C 20.65625 0.667969 22.089844 -0.90625 26.191406 -0.90625 C 27.050781 -0.90625 27.957031 -0.859375 28.863281 -0.714844 L 28.863281 -2.195312 C 27.765625 -2.574219 27.242188 -4.246094 27.242188 -7.0625 C 27.242188 -9.96875 27.097656 -12.210938 29.101562 -12.5 L 30.199219 -12.691406 L 30.199219 -14.074219 C 26.382812 -13.976562 22.230469 -13.976562 18.320312 -14.074219 Z M 18.320312 -14.074219 "/></g></g></g><g fill="#004aad" fill-opacity="1"><g transform="translate(199.40363, 170.734787)"><g><path d="M 9.453125 -13.734375 C 9.953125 -13.734375 10.363281 -13.695312 10.6875 -13.625 L 10.421875 -10.171875 C 10.117188 -10.253906 9.753906 -10.296875 9.328125 -10.296875 C 8.148438 -10.296875 7.234375 -9.992188 6.578125 -9.390625 C 5.929688 -8.785156 5.609375 -7.941406 5.609375 -6.859375 L 5.609375 0 L 1.921875 0 L 1.921875 -13.484375 L 4.71875 -13.484375 L 5.25 -11.203125 L 5.4375 -11.203125 C 5.851562 -11.960938 6.414062 -12.570312 7.125 -13.03125 C 7.84375 -13.5 8.617188 -13.734375 9.453125 -13.734375 Z M 9.453125 -13.734375 "/></g></g></g><g fill="#004aad" fill-opacity="1"><g transform="translate(210.611368, 170.734787)"><g><path d="M 10.484375 0 L 9.78125 -1.828125 L 9.6875 -1.828125 C 9.0625 -1.046875 8.421875 -0.503906 7.765625 -0.203125 C 7.109375 0.0859375 6.253906 0.234375 5.203125 0.234375 C 3.910156 0.234375 2.890625 -0.132812 2.140625 -0.875 C 1.398438 -1.613281 1.03125 -2.664062 1.03125 -4.03125 C 1.03125 -5.457031 1.53125 -6.507812 2.53125 -7.1875 C 3.53125 -7.863281 5.039062 -8.238281 7.0625 -8.3125 L 9.40625 -8.390625 L 9.40625 -8.984375 C 9.40625 -10.347656 8.707031 -11.03125 7.3125 -11.03125 C 6.226562 -11.03125 4.960938 -10.703125 3.515625 -10.046875 L 2.296875 -12.53125 C 3.835938 -13.34375 5.554688 -13.75 7.453125 -13.75 C 9.253906 -13.75 10.640625 -13.351562 11.609375 -12.5625 C 12.578125 -11.78125 13.0625 -10.585938 13.0625 -8.984375 L 13.0625 0 Z M 9.40625 -6.25 L 7.984375 -6.203125 C 6.910156 -6.160156 6.113281 -5.960938 5.59375 -5.609375 C 5.070312 -5.265625 4.8125 -4.726562 4.8125 -4 C 4.8125 -2.96875 5.40625 -2.453125 6.59375 -2.453125 C 7.445312 -2.453125 8.128906 -2.695312 8.640625 -3.1875 C 9.148438 -3.675781 9.40625 -4.328125 9.40625 -5.140625 Z M 9.40625 -6.25 "/></g></g></g><g fill="#004aad" fill-opacity="1"><g transform="translate(225.518865, 170.734787)"><g><path d="M 7.40625 0.234375 C 3.207031 0.234375 1.109375 -2.066406 1.109375 -6.671875 C 1.109375 -8.960938 1.675781 -10.710938 2.8125 -11.921875 C 3.957031 -13.128906 5.597656 -13.734375 7.734375 -13.734375 C 9.285156 -13.734375 10.679688 -13.425781 11.921875 -12.8125 L 10.84375 -9.96875 C 10.257812 -10.195312 9.71875 -10.382812 9.21875 -10.53125 C 8.71875 -10.6875 8.222656 -10.765625 7.734375 -10.765625 C 5.816406 -10.765625 4.859375 -9.40625 4.859375 -6.6875 C 4.859375 -4.050781 5.816406 -2.734375 7.734375 -2.734375 C 8.429688 -2.734375 9.082031 -2.828125 9.6875 -3.015625 C 10.289062 -3.203125 10.894531 -3.5 11.5 -3.90625 L 11.5 -0.765625 C 10.90625 -0.378906 10.300781 -0.117188 9.6875 0.015625 C 9.082031 0.160156 8.320312 0.234375 7.40625 0.234375 Z M 7.40625 0.234375 "/></g></g></g><g fill="#004aad" fill-opacity="1"><g transform="translate(238.208917, 170.734787)"><g><path d="M 7.515625 -11.109375 C 6.734375 -11.109375 6.117188 -10.859375 5.671875 -10.359375 C 5.234375 -9.867188 4.984375 -9.171875 4.921875 -8.265625 L 10.078125 -8.265625 C 10.054688 -9.171875 9.816406 -9.867188 9.359375 -10.359375 C 8.898438 -10.859375 8.285156 -11.109375 7.515625 -11.109375 Z M 8.03125 0.234375 C 5.863281 0.234375 4.164062 -0.359375 2.9375 -1.546875 C 1.71875 -2.742188 1.109375 -4.441406 1.109375 -6.640625 C 1.109375 -8.898438 1.671875 -10.644531 2.796875 -11.875 C 3.929688 -13.113281 5.492188 -13.734375 7.484375 -13.734375 C 9.390625 -13.734375 10.875 -13.1875 11.9375 -12.09375 C 13 -11.007812 13.53125 -9.515625 13.53125 -7.609375 L 13.53125 -5.828125 L 4.828125 -5.828125 C 4.867188 -4.773438 5.175781 -3.957031 5.75 -3.375 C 6.332031 -2.789062 7.148438 -2.5 8.203125 -2.5 C 9.015625 -2.5 9.78125 -2.582031 10.5 -2.75 C 11.21875 -2.914062 11.972656 -3.1875 12.765625 -3.5625 L 12.765625 -0.71875 C 12.117188 -0.394531 11.429688 -0.15625 10.703125 0 C 9.972656 0.15625 9.082031 0.234375 8.03125 0.234375 Z M 8.03125 0.234375 "/></g></g></g><g fill="#004aad" fill-opacity="1"><g transform="translate(167.645457, 254.961207)"><g><path d="M 24.226562 -4.679688 L 15.949219 -27.128906 L 12.957031 -27.128906 L 5.070312 -4.289062 C 4.378906 -2.296875 3.292969 -1.429688 0.433594 -1.214844 L 0.433594 0 C 3.597656 -0.128906 7.324219 -0.128906 10.53125 0 L 10.53125 -1.214844 C 7.714844 -1.429688 6.023438 -1.992188 6.585938 -3.640625 L 8.320312 -8.796875 L 17.421875 -8.796875 L 19.242188 -3.8125 C 19.894531 -2.082031 19.546875 -1.429688 16.640625 -1.214844 L 16.640625 0 C 20.542969 -0.128906 24.574219 -0.128906 28.472656 0 L 28.472656 -1.214844 C 25.441406 -1.429688 25.050781 -2.46875 24.226562 -4.679688 Z M 8.796875 -10.226562 L 12.65625 -21.84375 L 16.902344 -10.226562 Z M 8.796875 -10.226562 "/></g></g></g><g fill="#004aad" fill-opacity="1"><g transform="translate(197.288089, 254.028274)"><g><path d="M 10.296875 -3.640625 C 10.296875 -2.378906 9.859375 -1.421875 8.984375 -0.765625 C 8.109375 -0.109375 6.800781 0.21875 5.0625 0.21875 C 4.175781 0.21875 3.414062 0.15625 2.78125 0.03125 C 2.15625 -0.0820312 1.570312 -0.257812 1.03125 -0.5 L 1.03125 -3.25 C 1.644531 -2.957031 2.34375 -2.710938 3.125 -2.515625 C 3.90625 -2.316406 4.585938 -2.21875 5.171875 -2.21875 C 6.390625 -2.21875 7 -2.570312 7 -3.28125 C 7 -3.539062 6.914062 -3.75 6.75 -3.90625 C 6.59375 -4.070312 6.316406 -4.257812 5.921875 -4.46875 C 5.523438 -4.675781 5 -4.921875 4.34375 -5.203125 C 3.40625 -5.597656 2.710938 -5.960938 2.265625 -6.296875 C 1.828125 -6.628906 1.503906 -7.015625 1.296875 -7.453125 C 1.097656 -7.890625 1 -8.421875 1 -9.046875 C 1 -10.140625 1.421875 -10.984375 2.265625 -11.578125 C 3.109375 -12.171875 4.304688 -12.46875 5.859375 -12.46875 C 7.328125 -12.46875 8.757812 -12.144531 10.15625 -11.5 L 9.15625 -9.09375 C 8.539062 -9.351562 7.96875 -9.566406 7.4375 -9.734375 C 6.90625 -9.910156 6.359375 -10 5.796875 -10 C 4.816406 -10 4.328125 -9.734375 4.328125 -9.203125 C 4.328125 -8.898438 4.484375 -8.640625 4.796875 -8.421875 C 5.117188 -8.203125 5.816406 -7.875 6.890625 -7.4375 C 7.847656 -7.050781 8.546875 -6.691406 8.984375 -6.359375 C 9.429688 -6.023438 9.757812 -5.640625 9.96875 -5.203125 C 10.1875 -4.765625 10.296875 -4.242188 10.296875 -3.640625 Z M 10.296875 -3.640625 "/></g></g></g><g fill="#004aad" fill-opacity="1"><g transform="translate(208.433276, 254.028274)"><g><path d="M 10.296875 -3.640625 C 10.296875 -2.378906 9.859375 -1.421875 8.984375 -0.765625 C 8.109375 -0.109375 6.800781 0.21875 5.0625 0.21875 C 4.175781 0.21875 3.414062 0.15625 2.78125 0.03125 C 2.15625 -0.0820312 1.570312 -0.257812 1.03125 -0.5 L 1.03125 -3.25 C 1.644531 -2.957031 2.34375 -2.710938 3.125 -2.515625 C 3.90625 -2.316406 4.585938 -2.21875 5.171875 -2.21875 C 6.390625 -2.21875 7 -2.570312 7 -3.28125 C 7 -3.539062 6.914062 -3.75 6.75 -3.90625 C 6.59375 -4.070312 6.316406 -4.257812 5.921875 -4.46875 C 5.523438 -4.675781 5 -4.921875 4.34375 -5.203125 C 3.40625 -5.597656 2.710938 -5.960938 2.265625 -6.296875 C 1.828125 -6.628906 1.503906 -7.015625 1.296875 -7.453125 C 1.097656 -7.890625 1 -8.421875 1 -9.046875 C 1 -10.140625 1.421875 -10.984375 2.265625 -11.578125 C 3.109375 -12.171875 4.304688 -12.46875 5.859375 -12.46875 C 7.328125 -12.46875 8.757812 -12.144531 10.15625 -11.5 L 9.15625 -9.09375 C 8.539062 -9.351562 7.96875 -9.566406 7.4375 -9.734375 C 6.90625 -9.910156 6.359375 -10 5.796875 -10 C 4.816406 -10 4.328125 -9.734375 4.328125 -9.203125 C 4.328125 -8.898438 4.484375 -8.640625 4.796875 -8.421875 C 5.117188 -8.203125 5.816406 -7.875 6.890625 -7.4375 C 7.847656 -7.050781 8.546875 -6.691406 8.984375 -6.359375 C 9.429688 -6.023438 9.757812 -5.640625 9.96875 -5.203125 C 10.1875 -4.765625 10.296875 -4.242188 10.296875 -3.640625 Z M 10.296875 -3.640625 "/></g></g></g><g fill="#004aad" fill-opacity="1"><g transform="translate(219.578463, 254.028274)"><g><path d="M 6.828125 -10.09375 C 6.117188 -10.09375 5.5625 -9.867188 5.15625 -9.421875 C 4.75 -8.972656 4.519531 -8.335938 4.46875 -7.515625 L 9.15625 -7.515625 C 9.132812 -8.335938 8.914062 -8.972656 8.5 -9.421875 C 8.082031 -9.867188 7.523438 -10.09375 6.828125 -10.09375 Z M 7.296875 0.21875 C 5.316406 0.21875 3.769531 -0.320312 2.65625 -1.40625 C 1.550781 -2.5 1 -4.039062 1 -6.03125 C 1 -8.082031 1.507812 -9.664062 2.53125 -10.78125 C 3.5625 -11.90625 4.984375 -12.46875 6.796875 -12.46875 C 8.523438 -12.46875 9.867188 -11.972656 10.828125 -10.984375 C 11.796875 -10.003906 12.28125 -8.644531 12.28125 -6.90625 L 12.28125 -5.28125 L 4.390625 -5.28125 C 4.421875 -4.332031 4.695312 -3.59375 5.21875 -3.0625 C 5.75 -2.53125 6.488281 -2.265625 7.4375 -2.265625 C 8.175781 -2.265625 8.875 -2.335938 9.53125 -2.484375 C 10.1875 -2.640625 10.875 -2.890625 11.59375 -3.234375 L 11.59375 -0.640625 C 11.007812 -0.347656 10.382812 -0.132812 9.71875 0 C 9.050781 0.144531 8.242188 0.21875 7.296875 0.21875 Z M 7.296875 0.21875 "/></g></g></g><g fill="#004aad" fill-opacity="1"><g transform="translate(232.825689, 254.028274)"><g><path d="M 12.703125 0 L 9.375 0 L 9.375 -7.15625 C 9.375 -8.03125 9.222656 -8.6875 8.921875 -9.125 C 8.628906 -9.570312 8.164062 -9.796875 7.53125 -9.796875 C 6.675781 -9.796875 6.054688 -9.484375 5.671875 -8.859375 C 5.285156 -8.234375 5.09375 -7.203125 5.09375 -5.765625 L 5.09375 0 L 1.75 0 L 1.75 -12.234375 L 4.296875 -12.234375 L 4.75 -10.671875 L 4.9375 -10.671875 C 5.269531 -11.234375 5.742188 -11.671875 6.359375 -11.984375 C 6.984375 -12.304688 7.695312 -12.46875 8.5 -12.46875 C 10.332031 -12.46875 11.570312 -11.867188 12.21875 -10.671875 L 12.515625 -10.671875 C 12.835938 -11.242188 13.316406 -11.6875 13.953125 -12 C 14.597656 -12.3125 15.320312 -12.46875 16.125 -12.46875 C 17.507812 -12.46875 18.554688 -12.109375 19.265625 -11.390625 C 19.984375 -10.679688 20.34375 -9.546875 20.34375 -7.984375 L 20.34375 0 L 16.984375 0 L 16.984375 -7.15625 C 16.984375 -8.03125 16.835938 -8.6875 16.546875 -9.125 C 16.253906 -9.570312 15.789062 -9.796875 15.15625 -9.796875 C 14.332031 -9.796875 13.71875 -9.503906 13.3125 -8.921875 C 12.90625 -8.335938 12.703125 -7.410156 12.703125 -6.140625 Z M 12.703125 0 "/></g></g></g><g fill="#004aad" fill-opacity="1"><g transform="translate(254.842359, 254.028274)"><g><path d="M 8.5625 -12.46875 C 10.007812 -12.46875 11.140625 -11.90625 11.953125 -10.78125 C 12.773438 -9.65625 13.1875 -8.109375 13.1875 -6.140625 C 13.1875 -4.117188 12.765625 -2.550781 11.921875 -1.4375 C 11.078125 -0.332031 9.925781 0.21875 8.46875 0.21875 C 7.03125 0.21875 5.90625 -0.300781 5.09375 -1.34375 L 4.859375 -1.34375 L 4.296875 0 L 1.75 0 L 1.75 -17.03125 L 5.09375 -17.03125 L 5.09375 -13.078125 C 5.09375 -12.566406 5.046875 -11.757812 4.953125 -10.65625 L 5.09375 -10.65625 C 5.875 -11.863281 7.03125 -12.46875 8.5625 -12.46875 Z M 7.484375 -9.796875 C 6.660156 -9.796875 6.054688 -9.539062 5.671875 -9.03125 C 5.296875 -8.53125 5.101562 -7.695312 5.09375 -6.53125 L 5.09375 -6.15625 C 5.09375 -4.84375 5.285156 -3.898438 5.671875 -3.328125 C 6.066406 -2.765625 6.6875 -2.484375 7.53125 -2.484375 C 8.21875 -2.484375 8.765625 -2.796875 9.171875 -3.421875 C 9.578125 -4.054688 9.78125 -4.976562 9.78125 -6.1875 C 9.78125 -7.382812 9.570312 -8.285156 9.15625 -8.890625 C 8.75 -9.492188 8.191406 -9.796875 7.484375 -9.796875 Z M 7.484375 -9.796875 "/></g></g></g><g fill="#004aad" fill-opacity="1"><g transform="translate(269.031124, 254.028274)"><g><path d="M 5.09375 0 L 1.75 0 L 1.75 -17.03125 L 5.09375 -17.03125 Z M 5.09375 0 "/></g></g></g><g fill="#004aad" fill-opacity="1"><g transform="translate(275.873699, 254.028274)"><g><path d="M 0 -12.234375 L 3.65625 -12.234375 L 5.96875 -5.359375 C 6.164062 -4.753906 6.300781 -4.046875 6.375 -3.234375 L 6.4375 -3.234375 C 6.519531 -3.984375 6.675781 -4.691406 6.90625 -5.359375 L 9.171875 -12.234375 L 12.75 -12.234375 L 7.578125 1.5625 C 7.097656 2.84375 6.414062 3.800781 5.53125 4.4375 C 4.65625 5.070312 3.632812 5.390625 2.46875 5.390625 C 1.882812 5.390625 1.316406 5.328125 0.765625 5.203125 L 0.765625 2.546875 C 1.171875 2.640625 1.609375 2.6875 2.078125 2.6875 C 2.671875 2.6875 3.1875 2.503906 3.625 2.140625 C 4.070312 1.785156 4.414062 1.242188 4.65625 0.515625 L 4.859375 -0.09375 Z M 0 -12.234375 "/></g></g></g><g fill="#004aad" fill-opacity="1"><g transform="translate(171.479165, 214.509628)"><g><path d="M 22.503906 -7.835938 L 20.832031 -4.683594 C 19.589844 -2.4375 18.15625 -1.578125 14.574219 -1.578125 L 11.945312 -1.578125 C 10.511719 -1.578125 10.222656 -2.054688 10.222656 -3.726562 L 10.222656 -14.429688 L 15.910156 -14.429688 C 18.300781 -14.429688 18.921875 -13.234375 19.445312 -11.277344 L 20.640625 -11.277344 C 20.402344 -14 20.402344 -16.484375 20.640625 -19.160156 L 19.445312 -19.160156 C 18.921875 -17.199219 18.300781 -16.054688 15.910156 -16.054688 L 10.222656 -16.054688 L 10.222656 -27.042969 C 10.222656 -27.808594 10.511719 -28.1875 11.277344 -28.1875 L 15.335938 -28.1875 C 18.632812 -28.1875 20.066406 -27.136719 21.308594 -24.460938 L 21.785156 -23.410156 L 23.078125 -23.410156 L 22.359375 -28.808594 C 22.265625 -29.527344 22.167969 -29.671875 21.546875 -29.671875 L 1.195312 -29.671875 L 1.195312 -28.332031 C 3.773438 -28.140625 4.585938 -27.808594 4.585938 -26.421875 L 4.585938 -3.726562 C 4.585938 -2.054688 3.773438 -1.527344 1.195312 -1.335938 L 1.195312 0 C 8.359375 -0.144531 14.953125 -0.144531 22.40625 0 C 22.550781 -2.578125 22.933594 -5.066406 23.890625 -7.835938 Z M 22.503906 -7.835938 "/></g></g></g><g fill="#004aad" fill-opacity="1"><g transform="translate(197.772708, 214.780338)"><g><path d="M 13.953125 0 L 10.296875 0 L 10.296875 -7.859375 C 10.296875 -8.828125 10.128906 -9.550781 9.796875 -10.03125 C 9.472656 -10.519531 8.960938 -10.765625 8.265625 -10.765625 C 7.328125 -10.765625 6.644531 -10.414062 6.21875 -9.71875 C 5.800781 -9.03125 5.59375 -7.898438 5.59375 -6.328125 L 5.59375 0 L 1.921875 0 L 1.921875 -13.4375 L 4.71875 -13.4375 L 5.21875 -11.71875 L 5.421875 -11.71875 C 5.785156 -12.34375 6.304688 -12.828125 6.984375 -13.171875 C 7.671875 -13.515625 8.453125 -13.6875 9.328125 -13.6875 C 11.335938 -13.6875 12.703125 -13.03125 13.421875 -11.71875 L 13.75 -11.71875 C 14.101562 -12.34375 14.628906 -12.828125 15.328125 -13.171875 C 16.035156 -13.515625 16.832031 -13.6875 17.71875 -13.6875 C 19.238281 -13.6875 20.390625 -13.296875 21.171875 -12.515625 C 21.953125 -11.734375 22.34375 -10.484375 22.34375 -8.765625 L 22.34375 0 L 18.65625 0 L 18.65625 -7.859375 C 18.65625 -8.828125 18.492188 -9.550781 18.171875 -10.03125 C 17.847656 -10.519531 17.335938 -10.765625 16.640625 -10.765625 C 15.742188 -10.765625 15.070312 -10.441406 14.625 -9.796875 C 14.175781 -9.160156 13.953125 -8.144531 13.953125 -6.75 Z M 13.953125 0 "/></g></g></g><g fill="#004aad" fill-opacity="1"><g transform="translate(221.937733, 214.780338)"><g><path d="M 9.3125 0.234375 C 7.726562 0.234375 6.488281 -0.335938 5.59375 -1.484375 L 5.40625 -1.484375 C 5.53125 -0.359375 5.59375 0.289062 5.59375 0.46875 L 5.59375 5.921875 L 1.921875 5.921875 L 1.921875 -13.4375 L 4.90625 -13.4375 L 5.421875 -11.703125 L 5.59375 -11.703125 C 6.445312 -13.023438 7.71875 -13.6875 9.40625 -13.6875 C 10.988281 -13.6875 12.226562 -13.070312 13.125 -11.84375 C 14.03125 -10.625 14.484375 -8.925781 14.484375 -6.75 C 14.484375 -5.3125 14.269531 -4.0625 13.84375 -3 C 13.425781 -1.945312 12.828125 -1.144531 12.046875 -0.59375 C 11.265625 -0.0390625 10.351562 0.234375 9.3125 0.234375 Z M 8.21875 -10.765625 C 7.3125 -10.765625 6.648438 -10.484375 6.234375 -9.921875 C 5.816406 -9.367188 5.601562 -8.453125 5.59375 -7.171875 L 5.59375 -6.765625 C 5.59375 -5.328125 5.804688 -4.296875 6.234375 -3.671875 C 6.660156 -3.046875 7.335938 -2.734375 8.265625 -2.734375 C 9.910156 -2.734375 10.734375 -4.085938 10.734375 -6.796875 C 10.734375 -8.117188 10.53125 -9.109375 10.125 -9.765625 C 9.71875 -10.429688 9.082031 -10.765625 8.21875 -10.765625 Z M 8.21875 -10.765625 "/></g></g></g><g fill="#004aad" fill-opacity="1"><g transform="translate(237.511016, 214.780338)"><g><path d="M 4.84375 -6.75 C 4.84375 -5.414062 5.0625 -4.40625 5.5 -3.71875 C 5.9375 -3.039062 6.648438 -2.703125 7.640625 -2.703125 C 8.617188 -2.703125 9.320312 -3.039062 9.75 -3.71875 C 10.175781 -4.394531 10.390625 -5.40625 10.390625 -6.75 C 10.390625 -8.070312 10.171875 -9.066406 9.734375 -9.734375 C 9.304688 -10.398438 8.597656 -10.734375 7.609375 -10.734375 C 6.628906 -10.734375 5.921875 -10.398438 5.484375 -9.734375 C 5.054688 -9.078125 4.84375 -8.082031 4.84375 -6.75 Z M 14.140625 -6.75 C 14.140625 -4.5625 13.5625 -2.847656 12.40625 -1.609375 C 11.25 -0.378906 9.644531 0.234375 7.59375 0.234375 C 6.300781 0.234375 5.160156 -0.046875 4.171875 -0.609375 C 3.179688 -1.171875 2.421875 -1.976562 1.890625 -3.03125 C 1.367188 -4.09375 1.109375 -5.332031 1.109375 -6.75 C 1.109375 -8.945312 1.679688 -10.648438 2.828125 -11.859375 C 3.972656 -13.078125 5.582031 -13.6875 7.65625 -13.6875 C 8.945312 -13.6875 10.082031 -13.40625 11.0625 -12.84375 C 12.050781 -12.289062 12.8125 -11.488281 13.34375 -10.4375 C 13.875 -9.382812 14.140625 -8.15625 14.140625 -6.75 Z M 14.140625 -6.75 "/></g></g></g><g fill="#004aad" fill-opacity="1"><g transform="translate(252.747839, 214.780338)"><g><path d="M 12.96875 0 L 11.9375 -4.703125 L 10.546875 -10.640625 L 10.453125 -10.640625 L 8.015625 0 L 4.0625 0 L 0.234375 -13.4375 L 3.890625 -13.4375 L 5.453125 -7.484375 C 5.691406 -6.421875 5.941406 -4.953125 6.203125 -3.078125 L 6.28125 -3.078125 C 6.3125 -3.679688 6.453125 -4.644531 6.703125 -5.96875 L 6.890625 -7 L 8.546875 -13.4375 L 12.59375 -13.4375 L 14.171875 -7 C 14.203125 -6.820312 14.25 -6.5625 14.3125 -6.21875 C 14.382812 -5.875 14.453125 -5.503906 14.515625 -5.109375 C 14.578125 -4.722656 14.632812 -4.34375 14.6875 -3.96875 C 14.738281 -3.601562 14.769531 -3.304688 14.78125 -3.078125 L 14.84375 -3.078125 C 14.914062 -3.648438 15.046875 -4.441406 15.234375 -5.453125 C 15.421875 -6.460938 15.550781 -7.140625 15.625 -7.484375 L 17.25 -13.4375 L 20.84375 -13.4375 L 16.96875 0 Z M 12.96875 0 "/></g></g></g><g fill="#004aad" fill-opacity="1"><g transform="translate(273.812627, 214.780338)"><g><path d="M 7.484375 -11.09375 C 6.710938 -11.09375 6.101562 -10.84375 5.65625 -10.34375 C 5.21875 -9.851562 4.96875 -9.15625 4.90625 -8.25 L 10.046875 -8.25 C 10.035156 -9.15625 9.800781 -9.851562 9.34375 -10.34375 C 8.882812 -10.84375 8.265625 -11.09375 7.484375 -11.09375 Z M 8.015625 0.234375 C 5.847656 0.234375 4.15625 -0.359375 2.9375 -1.546875 C 1.71875 -2.742188 1.109375 -4.4375 1.109375 -6.625 C 1.109375 -8.875 1.671875 -10.613281 2.796875 -11.84375 C 3.921875 -13.070312 5.476562 -13.6875 7.46875 -13.6875 C 9.363281 -13.6875 10.835938 -13.144531 11.890625 -12.0625 C 12.953125 -10.988281 13.484375 -9.5 13.484375 -7.59375 L 13.484375 -5.8125 L 4.828125 -5.8125 C 4.859375 -4.769531 5.160156 -3.953125 5.734375 -3.359375 C 6.316406 -2.773438 7.128906 -2.484375 8.171875 -2.484375 C 8.984375 -2.484375 9.75 -2.566406 10.46875 -2.734375 C 11.195312 -2.910156 11.953125 -3.179688 12.734375 -3.546875 L 12.734375 -0.703125 C 12.085938 -0.390625 11.398438 -0.15625 10.671875 0 C 9.941406 0.15625 9.054688 0.234375 8.015625 0.234375 Z M 8.015625 0.234375 "/></g></g></g><g fill="#004aad" fill-opacity="1"><g transform="translate(288.352497, 214.780338)"><g><path d="M 9.421875 -13.6875 C 9.921875 -13.6875 10.335938 -13.65625 10.671875 -13.59375 L 10.390625 -10.140625 C 10.085938 -10.222656 9.726562 -10.265625 9.3125 -10.265625 C 8.132812 -10.265625 7.21875 -9.960938 6.5625 -9.359375 C 5.914062 -8.765625 5.59375 -7.925781 5.59375 -6.84375 L 5.59375 0 L 1.921875 0 L 1.921875 -13.4375 L 4.703125 -13.4375 L 5.25 -11.1875 L 5.421875 -11.1875 C 5.835938 -11.9375 6.398438 -12.539062 7.109375 -13 C 7.816406 -13.457031 8.585938 -13.6875 9.421875 -13.6875 Z M 9.421875 -13.6875 "/></g></g></g><g fill="#004aad" fill-opacity="1"><g transform="translate(299.52777, 214.780338)"><g><path d="M 13.953125 0 L 10.296875 0 L 10.296875 -7.859375 C 10.296875 -8.828125 10.128906 -9.550781 9.796875 -10.03125 C 9.472656 -10.519531 8.960938 -10.765625 8.265625 -10.765625 C 7.328125 -10.765625 6.644531 -10.414062 6.21875 -9.71875 C 5.800781 -9.03125 5.59375 -7.898438 5.59375 -6.328125 L 5.59375 0 L 1.921875 0 L 1.921875 -13.4375 L 4.71875 -13.4375 L 5.21875 -11.71875 L 5.421875 -11.71875 C 5.785156 -12.34375 6.304688 -12.828125 6.984375 -13.171875 C 7.671875 -13.515625 8.453125 -13.6875 9.328125 -13.6875 C 11.335938 -13.6875 12.703125 -13.03125 13.421875 -11.71875 L 13.75 -11.71875 C 14.101562 -12.34375 14.628906 -12.828125 15.328125 -13.171875 C 16.035156 -13.515625 16.832031 -13.6875 17.71875 -13.6875 C 19.238281 -13.6875 20.390625 -13.296875 21.171875 -12.515625 C 21.953125 -11.734375 22.34375 -10.484375 22.34375 -8.765625 L 22.34375 0 L 18.65625 0 L 18.65625 -7.859375 C 18.65625 -8.828125 18.492188 -9.550781 18.171875 -10.03125 C 17.847656 -10.519531 17.335938 -10.765625 16.640625 -10.765625 C 15.742188 -10.765625 15.070312 -10.441406 14.625 -9.796875 C 14.175781 -9.160156 13.953125 -8.144531 13.953125 -6.75 Z M 13.953125 0 "/></g></g></g><g fill="#004aad" fill-opacity="1"><g transform="translate(323.692794, 214.780338)"><g><path d="M 7.484375 -11.09375 C 6.710938 -11.09375 6.101562 -10.84375 5.65625 -10.34375 C 5.21875 -9.851562 4.96875 -9.15625 4.90625 -8.25 L 10.046875 -8.25 C 10.035156 -9.15625 9.800781 -9.851562 9.34375 -10.34375 C 8.882812 -10.84375 8.265625 -11.09375 7.484375 -11.09375 Z M 8.015625 0.234375 C 5.847656 0.234375 4.15625 -0.359375 2.9375 -1.546875 C 1.71875 -2.742188 1.109375 -4.4375 1.109375 -6.625 C 1.109375 -8.875 1.671875 -10.613281 2.796875 -11.84375 C 3.921875 -13.070312 5.476562 -13.6875 7.46875 -13.6875 C 9.363281 -13.6875 10.835938 -13.144531 11.890625 -12.0625 C 12.953125 -10.988281 13.484375 -9.5 13.484375 -7.59375 L 13.484375 -5.8125 L 4.828125 -5.8125 C 4.859375 -4.769531 5.160156 -3.953125 5.734375 -3.359375 C 6.316406 -2.773438 7.128906 -2.484375 8.171875 -2.484375 C 8.984375 -2.484375 9.75 -2.566406 10.46875 -2.734375 C 11.195312 -2.910156 11.953125 -3.179688 12.734375 -3.546875 L 12.734375 -0.703125 C 12.085938 -0.390625 11.398438 -0.15625 10.671875 0 C 9.941406 0.15625 9.054688 0.234375 8.015625 0.234375 Z M 8.015625 0.234375 "/></g></g></g><g fill="#004aad" fill-opacity="1"><g transform="translate(338.232665, 214.780338)"><g><path d="M 14.328125 0 L 10.671875 0 L 10.671875 -7.859375 C 10.671875 -8.828125 10.492188 -9.550781 10.140625 -10.03125 C 9.796875 -10.519531 9.25 -10.765625 8.5 -10.765625 C 7.476562 -10.765625 6.738281 -10.421875 6.28125 -9.734375 C 5.820312 -9.046875 5.59375 -7.910156 5.59375 -6.328125 L 5.59375 0 L 1.921875 0 L 1.921875 -13.4375 L 4.71875 -13.4375 L 5.21875 -11.71875 L 5.421875 -11.71875 C 5.828125 -12.375 6.390625 -12.863281 7.109375 -13.1875 C 7.828125 -13.519531 8.644531 -13.6875 9.5625 -13.6875 C 11.125 -13.6875 12.304688 -13.265625 13.109375 -12.421875 C 13.921875 -11.578125 14.328125 -10.359375 14.328125 -8.765625 Z M 14.328125 0 "/></g></g></g><g fill="#004aad" fill-opacity="1"><g transform="translate(354.406769, 214.780338)"><g><path d="M 7.59375 -2.6875 C 8.226562 -2.6875 8.992188 -2.828125 9.890625 -3.109375 L 9.890625 -0.375 C 8.984375 0.03125 7.863281 0.234375 6.53125 0.234375 C 5.0625 0.234375 3.992188 -0.132812 3.328125 -0.875 C 2.660156 -1.613281 2.328125 -2.722656 2.328125 -4.203125 L 2.328125 -10.6875 L 0.5625 -10.6875 L 0.5625 -12.234375 L 2.578125 -13.46875 L 3.640625 -16.296875 L 5.984375 -16.296875 L 5.984375 -13.4375 L 9.75 -13.4375 L 9.75 -10.6875 L 5.984375 -10.6875 L 5.984375 -4.203125 C 5.984375 -3.679688 6.128906 -3.296875 6.421875 -3.046875 C 6.710938 -2.804688 7.101562 -2.6875 7.59375 -2.6875 Z M 7.59375 -2.6875 "/></g></g></g></svg>